PathFileType	4	(X/Y/Z)	E:\Qualisys_Data\Carbon_Farble_Plate\Data\Amateur_Runner\S1\T1\S1T1V11_c3d.trc
DataRate	CameraRate	NumFrames	NumMarkers	Units	OrigDataRate	OrigDataStartFrame	OrigNumFrames
200.000000	200.000000	4	39	mm	200.000000	244	326
Frame#	Time	LSHO			RSHO			LICST			RICST			LASIS			LHEEL			RASIS			LTROC			RTROC			SACR			LTH1			LSK4			LTH2			LTH3			RHM5			LSK2			LTH4			RTH1			LTOE			RTH2			RTH3			RTH4			LLEP			RLEP			LSK1			LSK3			RSK1			LHM5			RSK2			LFT1			RSK3			RSK4			LLME			RLME			RTOE			RHEEL			RFT1			RFT2			LFT2			
		X1	Y1	Z1	X2	Y2	Z2	X3	Y3	Z3	X4	Y4	Z4	X5	Y5	Z5	X6	Y6	Z6	X7	Y7	Z7	X8	Y8	Z8	X9	Y9	Z9	X10	Y10	Z10	X11	Y11	Z11	X12	Y12	Z12	X13	Y13	Z13	X14	Y14	Z14	X15	Y15	Z15	X16	Y16	Z16	X17	Y17	Z17	X18	Y18	Z18	X19	Y19	Z19	X20	Y20	Z20	X21	Y21	Z21	X22	Y22	Z22	X23	Y23	Z23	X24	Y24	Z24	X25	Y25	Z25	X26	Y26	Z26	X27	Y27	Z27	X28	Y28	Z28	X29	Y29	Z29	X30	Y30	Z30	X31	Y31	Z31	X32	Y32	Z32	X33	Y33	Z33	X34	Y34	Z34	X35	Y35	Z35	X36	Y36	Z36	X37	Y37	Z37	X38	Y38	Z38	X39	Y39	Z39	

245	1.22	1203.974365234375	1505.716064453125	-599.5964965820312	1272.348266601562	1511.175170898438	-286.0939331054688	1217.008666992188	1042.200073242188	-549.2359619140625	1236.3134765625	1057.287841796875	-254.4149475097656	1266.924194335938	1005.2734375	-526.7196044921875	1317.80029296875	70.38143157958984	-432.9914245605469	1271.586181640625	1007.151000976562	-263.8347473144531	1163.829223632812	916.3118896484376	-564.7506713867188	1155.895385742188	927.7904052734376	-220.9546508789062	1109.14501953125	1064.561401367188	-390.2541809082031	1324.658325195312	796.76806640625	-549.0096435546875	1297.848999023438	231.5709991455078	-474.742919921875	1246.677368164062	767.1704711914062	-571.4269409179688	1353.250244140625	697.5735473632812	-533.0776977539062	737.1787719726562	192.1493682861328	-230.9711761474609	1291.96630859375	327.7010803222656	-516.8731079101562	1271.50390625	672.3960571289062	-543.9129638671875	1256.426025390625	777.0989990234375	-258.4440307617188	1563.799560546875	131.4250335693359	-461.2239990234375	1186.4892578125	787.0242309570312	-225.3055267333984	1238.795043945312	677.69189453125	-265.3501281738281	1164.200561523438	690.3548583984375	-236.995361328125	1347.24560546875	538.6559448242188	-504.8194274902344	1142.404418945312	519.6779174804688	-268.6903076171875	1376.720581054688	328.5050048828125	-509.3128662109375	1374.717407226562	227.8045959472656	-500.9893798828125	980.1262817382812	423.4005737304688	-243.4758911132812	1502.044921875	92.82528686523438	-511.8735961914062	940.6678466796876	493.5355529785156	-258.5222778320312	1337.882446289062	51.73212432861328	-405.0070190429688	893.4736328125	372.5914001464844	-249.8646087646484	855.6959838867188	440.5540771484375	-274.4550476074219	1358.030639648438	101.808349609375	-488.2022094726562	764.0945434570312	336.4496154785156	-245.746337890625	779.9544067382812	137.8441925048828	-308.2001342773438	709.1867065429688	380.4513854980469	-286.1213073730469	685.013916015625	362.9040222167969	-319.0354919433594	685.5077514648438	367.5469055175781	-260.8805541992188	1328.2939453125	43.12912368774414	-457.3135681152344
246	1.225	1220.967041015625	1500.425048828125	-600.5306396484375	1287.537475585938	1507.077392578125	-287.0641479492188	1230.671142578125	1038.19677734375	-550.4346313476562	1251.692260742188	1052.687133789062	-254.9082946777344	1281.549682617188	1001.55517578125	-527.9609375	1322.605346679688	71.04096221923828	-432.6893005371094	1286.991821289062	1002.986877441406	-264.6708984375	1178.828002929688	912.6235961914062	-564.8861694335938	1171.914672851562	922.8328857421876	-221.661376953125	1124.358276367188	1060.539672851562	-390.6126708984375	1341.119750976562	792.9440307617188	-549.9097290039062	1306.982421875	227.6929931640625	-474.4183044433594	1262.877319335938	763.763671875	-571.083984375	1369.38037109375	694.7100830078125	-533.3500366210938	756.0755004882812	195.0986175537109	-230.7921142578125	1302.567016601562	323.5033569335938	-516.3419189453125	1287.947021484375	668.9826049804688	-543.443115234375	1274.626220703125	773.315673828125	-257.9176025390625	1570.475341796875	119.1437835693359	-459.82421875	1204.083129882812	782.3135986328125	-225.7497253417969	1258.953125	673.6414794921875	-264.6473083496094	1183.594604492188	685.285888671875	-237.1703186035156	1361.91943359375	533.8150634765625	-505.6471862792969	1165.29345703125	514.1862182617188	-268.4493103027344	1387.689575195312	323.3283081054688	-508.7111206054688	1383.823364257812	222.4154968261719	-500.1347961425781	1001.537048339844	420.6718139648438	-243.4368286132812	1507.01123046875	83.7130126953125	-509.9037170410156	963.51171875	491.5091247558594	-259.1419372558594	1341.3896484375	50.86734390258789	-405.3199768066406	913.822021484375	372.0511779785156	-250.3016204833984	877.3200073242188	440.733154296875	-275.3625183105469	1364.021850585938	97.87853240966795	-487.610107421875	784.2772216796875	339.182861328125	-246.2293243408203	798.0181884765625	139.619140625	-307.4062194824219	729.4413452148438	383.5960388183594	-287.1066284179688	705.5219116210938	366.1347045898438	-319.8037109375	706.2564086914062	371.0424499511719	-261.4137573242188	1331.606567382812	43.29438400268555	-457.4120483398438
247	1.23	1237.605834960938	1495.331665039062	-602.2179565429688	1302.863647460938	1502.70751953125	-287.6613159179688	1245.107421875	1032.841186523438	-552.33447265625	1266.741455078125	1048.2041015625	-254.7646789550781	1296.672607421875	998.190185546875	-528.4757690429688	1326.636596679688	71.49378967285156	-434.0263366699219	1302.135986328125	998.6835327148438	-264.7292785644531	1194.093017578125	908.1302490234376	-565.2791137695312	1187.513549804688	917.4774169921876	-222.5041351318359	1139.097778320312	1055.622436523438	-390.6043090820312	1357.141845703125	788.9783935546875	-550.3851318359375	1315.794067382812	223.9291839599609	-473.6361389160156	1278.832153320312	759.4622802734375	-570.600830078125	1385.112426757812	690.6876220703125	-533.3487548828125	775.2986450195312	197.7826995849609	-230.4559173583984	1313.71826171875	319.6397094726562	-515.60693359375	1303.950805664062	664.7949829101562	-543.2267456054688	1292.806640625	769.4910888671875	-257.3738403320312	1577.438354492188	105.6400833129883	-458.7585144042969	1221.651733398438	777.5130004882812	-225.9660491943359	1278.974365234375	669.5060424804688	-263.6013488769531	1202.827758789062	679.7980346679688	-237.6886291503906	1375.881591796875	529.1898193359375	-506.77783203125	1187.962280273438	509.1537170410156	-267.4600830078125	1398.082153320312	317.7864074707031	-508.0723876953125	1392.136108398438	217.1627197265625	-499.3583374023438	1023.428466796875	418.2878723144531	-243.1467742919922	1512.080200195312	73.23882293701172	-508.961181640625	986.8682861328124	490.0662536621094	-259.4434814453125	1344.169067382812	49.74528884887695	-405.3874206542969	934.8576049804688	370.6891174316406	-250.6434020996094	900.1342163085938	440.4915771484375	-275.5560913085938	1370.203125	94.35688018798828	-487.0470581054688	805.1638793945312	341.5410461425781	-246.6041717529297	816.3441772460938	141.181640625	-306.928466796875	751.09375	386.2868041992188	-287.9483337402344	726.7470703125	369.0711669921875	-320.6370849609375	727.5687866210938	374.1166381835938	-262.1867065429688	1334.80224609375	42.81850051879883	-457.69970703125
248	1.235	1254.650268554688	1489.827880859375	-603.5650024414062	1317.474487304688	1498.311645507812	-288.7596130371094	1260.790405273438	1028.801635742188	-551.6460571289062	1281.983642578125	1043.656494140625	-255.0130462646484	1312.41455078125	994.372314453125	-529.0025634765625	1330.666625976562	70.66630554199219	-434.2027282714844	1317.205688476562	994.0919799804688	-265.3068237304688	1209.374877929688	903.986328125	-566.2134399414062	1203.335083007812	911.9948120117188	-223.3120880126953	1154.30712890625	1051.073852539062	-391.0574340820312	1372.541137695312	784.2989501953125	-551.0016479492188	1324.0390625	220.3744964599609	-472.4838562011719	1294.2841796875	755.3748168945312	-571.0505981445312	1400.29296875	685.9411010742188	-533.2330322265625	795.6409912109375	200.573974609375	-230.1843109130859	1324.154052734375	315.3520202636719	-514.6801147460938	1319.27685546875	660.5050048828125	-543.6178588867188	1310.933349609375	765.7661743164062	-256.6583557128906	1584.008666992188	91.87543487548828	-457.5527038574219	1238.762817382812	772.947509765625	-225.4216003417969	1298.713623046875	665.34033203125	-262.2695617675781	1222.623413085938	674.5365600585938	-237.7821197509766	1390.315795898438	524.48193359375	-507.4661254882812	1211.365234375	503.6316223144531	-267.2818908691406	1409.048706054688	312.579833984375	-507.2317810058594	1400.989013671875	212.07763671875	-498.2449035644531	1045.864624023438	415.6544494628906	-242.8208465576172	1517.374633789062	62.81768798828125	-507.1338195800781	1010.799499511719	487.978515625	-259.8305969238281	1346.786010742188	49.02049255371094	-405.5847473144531	956.80126953125	369.9636535644531	-250.7881927490234	923.0165405273438	439.9893188476562	-276.2678833007812	1375.962646484375	90.77965545654295	-486.5447082519531	825.8800048828125	343.3625793457031	-247.2436828613281	836.2949829101562	143.1912384033203	-306.0836181640625	772.5768432617188	388.5917358398438	-289.4261779785156	748.4365844726562	371.1778869628906	-321.8414306640625	749.0098876953125	376.98681640625	-263.5375061035156	1337.376220703125	41.78468322753906	-457.82275390625
